<?xml version="1.0" encoding="UTF-8"?>
<svg version="1.1" xmlns="http://www.w3.org/2000/svg" width="1080" height="1080">
<path d="M0 0 C1.38579776 0.1960716 2.77170807 0.39134887 4.15771484 0.5859375 C92.36175676 13.1191265 175.71773941 49.60758269 244 107 C244.515625 107.43070801 245.03125 107.86141602 245.5625 108.30517578 C261.63588152 121.7581033 277.70627938 136.03623936 291.30859375 152.03125 C293.23867842 154.27781507 295.24418139 156.44583904 297.25 158.625 C302.29449303 164.22336473 306.91667072 170.10669645 311.51123047 176.07421875 C313.02900591 178.03752028 314.56225273 179.98796363 316.09765625 181.9375 C369.51558672 250.19601578 406.32281339 338.9888238 412 426 C412.05591309 426.82177734 412.11182617 427.64355469 412.16943359 428.49023438 C412.90154533 440.87839643 412.26470601 450.01213476 404.32421875 460.13671875 C398.11947646 466.94053961 389.61153644 470.57516971 380.46760559 471.26742554 C379.22250717 471.27504913 377.97740875 471.28267273 376.69458008 471.29052734 C376.00082275 471.29724457 375.30706543 471.30396179 374.59228516 471.31088257 C372.31795922 471.32974686 370.04393038 471.3337813 367.76953125 471.3359375 C366.17160425 471.34237514 364.5736784 471.3491042 362.97575378 471.35610962 C359.63118767 471.36805473 356.2867246 471.37179347 352.94213867 471.37060547 C348.68679746 471.37040282 344.43212817 471.39766048 340.17694569 471.43214989 C336.87634842 471.45455192 333.57590921 471.45843892 330.27524376 471.45738602 C328.70817445 471.45972373 327.14109954 471.46844227 325.57410622 471.48405075 C313.16223907 471.59607821 301.84057481 470.41893354 292.03125 462.03125 C281.41908832 451.41908832 278.85456106 438.32051812 277.125 423.875 C266.98346823 347.31899038 230.4507296 279.72881356 176.5 225.3125 C175.63407227 224.43352051 174.76814453 223.55454102 173.87597656 222.64892578 C167.89937129 216.66444768 161.64200679 211.23220584 155 206 C154.2678125 205.41919678 153.535625 204.83839355 152.78125 204.23999023 C143.16884154 196.67411673 133.33305765 189.54817754 123 183 C122.42668945 182.63487305 121.85337891 182.26974609 121.26269531 181.89355469 C85.78557325 159.48166172 47.16472292 145.02773546 6.32522583 135.96031189 C5.51514635 135.78041686 4.70506687 135.60052183 3.87043953 135.41517544 C3.25319448 135.27816754 2.63594944 135.14115965 2 135 C2.0018986 136.06053553 2.0037972 137.12107107 2.00575334 138.21374404 C2.08910324 184.95580055 2.16624141 231.69786206 2.2117157 278.43997192 C2.21240598 279.14768934 2.21309627 279.85540675 2.21380747 280.58457015 C2.22877221 295.9653887 2.24262309 311.34620807 2.25532665 326.72702866 C2.2615633 334.2698422 2.26804607 341.81265553 2.2746582 349.35546875 C2.2756389 350.48136618 2.2756389 350.48136618 2.2766394 351.630009 C2.29794395 375.95655244 2.33549885 400.28303779 2.3814861 424.60954604 C2.42866038 449.60939636 2.45942984 474.60921452 2.46957495 499.6091086 C2.47101571 503.14063186 2.4726439 506.67215501 2.47438622 510.20367813 C2.47472333 510.89872859 2.47506045 511.59377905 2.47540778 512.30989165 C2.48131505 523.4957156 2.50450174 534.68144013 2.53416017 545.86722354 C2.56361199 557.11429607 2.5744314 568.361272 2.56750689 579.60839121 C2.56430028 585.70174628 2.56926093 591.79480964 2.59602737 597.88811302 C2.62035618 603.46719972 2.62158949 609.04579848 2.60449447 614.62490763 C2.6023816 616.64257865 2.60872702 618.66028011 2.62441591 620.67789124 C2.76514624 639.89426987 2.76514624 639.89426987 -3 648 C-3.680625 649.0725 -4.36125 650.145 -5.0625 651.25 C-10.90889667 657.59494996 -19.24213929 660.33126816 -27.62939453 660.76049805 C-30.46535437 660.81483453 -33.29669696 660.79448709 -36.1328125 660.76171875 C-37.66112569 660.76322568 -39.18943804 660.76666671 -40.71774292 660.77192688 C-43.89995352 660.77622851 -47.08114016 660.75964628 -50.26318359 660.72729492 C-54.31601589 660.68744737 -58.36693832 660.69686255 -62.41983223 660.72152996 C-65.56862716 660.73579406 -68.71698512 660.72556402 -71.86574936 660.70801735 C-73.35907825 660.70222166 -74.8524529 660.70338875 -76.34576797 660.71204185 C-85.30089266 660.74667882 -92.33760971 659.98102796 -100 655 C-100.9075 654.443125 -101.815 653.88625 -102.75 653.3125 C-109.46612201 646.40981905 -112.15398401 639.19226882 -112.12304783 629.74408436 C-112.12420167 628.88799411 -112.12535552 628.03190387 -112.12654433 627.1498715 C-112.12920989 624.25572303 -112.12468929 621.36162921 -112.12025452 618.46748352 C-112.12069023 616.38187004 -112.12156514 614.29625661 -112.12284368 612.21064347 C-112.12508861 606.45961981 -112.12106737 600.70861463 -112.11606562 594.95759332 C-112.11176128 588.76331416 -112.11320753 582.5690361 -112.1139679 576.37475586 C-112.11449314 565.63612373 -112.11138106 554.89749906 -112.10573006 544.15886879 C-112.09981716 532.89373051 -112.09596494 521.62859464 -112.09487724 510.36345482 C-112.0948085 509.66355591 -112.09473976 508.96365701 -112.09466894 508.24254905 C-112.09433062 504.68825324 -112.09402923 501.13395744 -112.09374207 497.57966163 C-112.09164052 472.39124087 -112.08489998 447.20282327 -112.07543945 422.0144043 C-112.06625811 397.54109718 -112.05917298 373.06779092 -112.05493164 348.59448242 C-112.05480011 347.84037876 -112.05466859 347.08627511 -112.05453308 346.30931982 C-112.05321458 338.73644173 -112.05193876 331.16356363 -112.05069422 323.59068552 C-112.04815786 308.16325543 -112.04533661 292.73582539 -112.04234314 277.30839539 C-112.04220585 276.59903535 -112.04206856 275.88967531 -112.04192711 275.15881952 C-112.03272328 227.772545 -112.01685694 180.38627235 -112 133 C-116.59407118 133.91898799 -121.18658746 134.84530591 -125.77792358 135.77786255 C-127.33348492 136.0928118 -128.88942375 136.40590344 -130.44577026 136.71694946 C-144.63371748 139.55476772 -158.30692652 143.28076818 -172 148 C-172.99080566 148.33725098 -173.98161133 148.67450195 -175.00244141 149.02197266 C-211.09177107 161.45700415 -244.16178718 180.31519294 -274 204 C-274.92167969 204.72703125 -275.84335937 205.4540625 -276.79296875 206.203125 C-294.27313504 220.22761628 -311.34683468 236.20166115 -325 254 C-325.86090527 255.07352431 -326.72433953 256.14502378 -327.58984375 257.21484375 C-366.9213253 306.05886139 -392.35782022 366.04653834 -399.67089844 428.33496094 C-401.40407501 442.80303681 -405.10602243 454.68999764 -416.62890625 464.30859375 C-423.93332036 469.51915604 -431.14765629 471.11220043 -440.01831055 471.16113281 C-440.70523483 471.16609772 -441.39215912 471.17106262 -442.09989929 471.17617798 C-444.36218284 471.19072673 -446.62439619 471.19759047 -448.88671875 471.203125 C-449.66399637 471.20595238 -450.44127399 471.20877975 -451.24210548 471.21169281 C-455.35794029 471.22665844 -459.4737403 471.23590362 -463.58959961 471.24023438 C-467.81815629 471.24570561 -472.0463888 471.26971247 -476.27484417 471.29820633 C-479.54617711 471.31693524 -482.81743369 471.3220438 -486.08881569 471.32357025 C-487.64636819 471.32657578 -489.20392003 471.33453236 -490.7614193 471.34775543 C-504.40091223 471.45526042 -515.31869203 469.88858274 -525.75390625 460.40625 C-532.5975599 453.133796 -534.56206716 445.18683171 -534.40234375 435.33056641 C-531.04324429 345.45556997 -493.04770467 253.65948169 -407.5625 146.55859375 C-405.84027899 144.84067829 -404.26865727 143.03584357 -402.6875 141.1875 C-396.69008699 134.24878899 -390.14341604 127.8482273 -383.171875 121.89453125 C-381.03010044 120.02625668 -378.95344557 118.09762083 -376.87963867 116.15454102 C-370.49577099 110.19536679 -363.81363825 104.75246267 -356.88037109 99.44775391 C-354.9662837 97.97404081 -353.07016022 96.47940748 -351.17578125 94.98046875 C-334.72850068 82.06004847 -317.20763687 70.30320336 -299 60 C-298.23139648 59.56300781 -297.46279297 59.12601563 -296.67089844 58.67578125 C-242.8916902 28.27793222 -185.19754005 9.13666713 -124.07922363 0.3013916 C-122.16750085 0.0242799 -120.25702184 -0.26137684 -118.34667969 -0.54785156 C-80.19403781 -6.03249828 -38.09947844 -5.66947354 0 0 Z " fill="#52B074" transform="translate(595,103)"/>
<path d="M0 0 C3.5 1.75 3.5 1.75 6 4 C6.7425 4.61875 7.485 5.2375 8.25 5.875 C12.11292777 10.56569801 12.28724039 15.90315372 12.22705078 21.74951172 C12.22734283 22.50141281 12.22763489 23.2533139 12.22793579 24.02799988 C12.22655052 26.49534945 12.21102748 28.96239115 12.1953125 31.4296875 C12.19157951 33.14746943 12.18873389 34.8652535 12.18673706 36.58303833 C12.17912311 41.09084006 12.15949395 45.59851167 12.1373291 50.10626221 C12.11682235 54.71144857 12.10772503 59.31665608 12.09765625 63.921875 C12.07624583 72.94798286 12.04108204 81.97396022 12 91 C20.25 91 28.5 91 37 91 C36.97905273 88.6079834 36.95810547 86.2159668 36.93652344 83.75146484 C36.87018938 75.84063517 36.82603903 67.92979308 36.79275131 60.01875877 C36.77189309 55.22313071 36.74360772 50.42778804 36.69824219 45.63232422 C36.65472142 41.00279568 36.63084961 36.37354135 36.62049103 31.74382401 C36.61311083 29.97919016 36.59869889 28.21457101 36.57707977 26.45005417 C36.54796238 23.97467591 36.54404739 21.50042482 36.54589844 19.02490234 C36.53151733 18.29841492 36.51713623 17.57192749 36.50231934 16.82342529 C36.54330435 11.74466139 37.83158065 8.92102194 41 5 C46.48391476 0.16893223 49.80539399 -0.35024743 57.015625 -0.28125 C62.23894934 0.21100046 64.77395566 2.70584209 68.25 6.375 C71.70932558 11.56398837 72.29080076 16.548431 72.22705078 22.65771484 C72.22734283 23.39986237 72.22763489 24.14200989 72.22793579 24.90664673 C72.22655072 27.34153235 72.21102871 29.77610582 72.1953125 32.2109375 C72.19157944 33.90629916 72.18873385 35.60166299 72.18673706 37.29702759 C72.1791237 41.74564638 72.15949505 46.19413328 72.1373291 50.6427002 C72.11682107 55.18756324 72.10772476 59.73244771 72.09765625 64.27734375 C72.07624687 73.18496292 72.04108357 82.09244982 72 91 C79.92 91 87.84 91 96 91 C95.98428955 88.77515869 95.9685791 86.55031738 95.95239258 84.25805664 C95.90253688 76.88206589 95.86948739 69.50606742 95.84456348 62.12995243 C95.82895136 57.66068116 95.80779511 53.19158349 95.77368164 48.72241211 C95.74092848 44.4041061 95.72311354 40.0859664 95.71536827 35.7675457 C95.70985327 34.12542544 95.69908418 32.4833136 95.68280983 30.84126472 C95.49701662 11.30656308 95.49701662 11.30656308 100.75390625 4.84375 C101.64916016 4.17859375 101.64916016 4.17859375 102.5625 3.5 C103.16191406 3.0359375 103.76132812 2.571875 104.37890625 2.09375 C109.09981705 -1.09144283 114.49251697 -0.51902981 120 0 C125.30198265 2.55631306 128.85668319 6.20298788 131.09320068 11.67440796 C132.12333999 15.45233656 132.28099593 18.95291077 132.25878906 22.83447266 C132.26404602 23.97730209 132.26404602 23.97730209 132.26940918 25.14321899 C132.27817638 27.6502609 132.27239159 30.15701794 132.265625 32.6640625 C132.26697392 34.42035984 132.26891635 36.17665681 132.27142334 37.93295288 C132.27436854 41.61305295 132.27009951 45.29305579 132.26074219 48.97314453 C132.24939852 53.6599034 132.25587856 58.34643189 132.26788712 63.03318214 C132.2751653 66.66231982 132.27278978 70.29140426 132.26763153 73.92054367 C132.26630882 75.64668175 132.26789372 77.37282486 132.27259064 79.09895706 C132.31290103 98.09028388 130.17361217 114.61277209 118 130 C117.51660156 130.63550781 117.03320312 131.27101563 116.53515625 131.92578125 C114.43389044 134.55090834 112.60740756 136.63845552 109.6887207 138.37573242 C106.9448911 140.032637 105.01385737 141.49446777 103 144 C102.26953667 148.70107582 103.16691887 152.98809088 104.0625 157.625 C104.28632013 158.95571092 104.506558 160.28702883 104.72338867 161.61889648 C105.30160167 165.07646601 105.94446699 168.51847865 106.60961914 171.96026611 C106.98794598 173.93701795 107.3468383 175.91745856 107.70507812 177.89794922 C113.73430755 211.19183505 123.61570403 236.27495181 147 261 C147.79535156 261.85980469 148.59070313 262.71960938 149.41015625 263.60546875 C179.78064747 295.35019034 223.99890458 313.50062255 267 319 C267.71953857 319.0942627 268.43907715 319.18852539 269.18041992 319.28564453 C276.99564532 320.19305153 284.82956976 320.2434029 292.6875 320.25 C293.7768988 320.25101212 293.7768988 320.25101212 294.88830566 320.25204468 C347.94685614 320.17420995 398.69986103 300.92835749 437 264 C437.83789062 263.22527344 438.67578125 262.45054687 439.5390625 261.65234375 C462.31532213 239.99682071 477.41552173 209.75267189 483 179 C483.22429687 177.78054688 483.44859375 176.56109375 483.6796875 175.3046875 C484.98139847 166.76332372 485.31407489 158.19171903 485.5 149.5625 C485.54286133 148.46043213 485.58572266 147.35836426 485.62988281 146.22290039 C485.69516855 138.25259938 483.77166545 134.21627736 479 128 C467.12647143 107.52056784 464.98655524 81.66660017 469.96484375 58.8359375 C475.75995134 37.36123692 487.30966248 17.91399538 506.75390625 6.1640625 C519.87310349 -0.63510407 535.6744872 -2.50151391 549.9375 1.625 C570.17153984 8.95286656 583.27529294 23.21607251 592.46484375 42.390625 C602.69708463 66.44810738 602.89620932 94.02225678 593.47412109 118.31274414 C587.50709518 132.83807594 587.50709518 132.83807594 582.46948242 137.37988281 C578.39468287 141.20858599 577.56791293 144.1436617 577.30078125 149.7265625 C577.28555089 151.67604906 577.27136394 153.62576796 577.2928772 155.57519531 C577.32627576 159.06402045 577.25180951 162.55089852 577.1875 166.0390625 C577.17676956 166.72977844 577.16603912 167.42049438 577.15498352 168.13214111 C576.01918017 229.57465467 540.42849592 285.10829765 497.64746094 326.44580078 C493.63494228 330.23117331 489.37030068 333.64091251 485 337 C484.44183594 337.43989258 483.88367188 337.87978516 483.30859375 338.33300781 C442.60840465 370.39649372 394.76301809 389.08266116 344 398 C343.00436035 398.17934082 342.0087207 398.35868164 340.98291016 398.54345703 C309.74271432 403.89633728 274.17302421 403.63585774 243 398 C241.85305664 397.79600586 240.70611328 397.59201172 239.52441406 397.38183594 C192.99420315 388.88243288 147.84145623 371.87272419 110 343 C109.42878418 342.57009766 108.85756836 342.14019531 108.26904297 341.69726562 C99.35513181 334.9707119 91.03367312 327.75244769 83 320 C82.11731445 319.15018555 82.11731445 319.15018555 81.21679688 318.28320312 C60.76297959 298.48565806 42.16339736 274.83593686 32 248 C31.76216797 247.37416016 31.52433594 246.74832031 31.27929688 246.10351562 C23.8126557 226.09291727 19.57475971 204.96405576 15.75 184 C15.62152679 183.30261719 15.49305359 182.60523438 15.36068726 181.88671875 C14.12155214 175.11965818 12.96993093 168.38530686 12.34765625 161.52734375 C11.8374397 152.26271349 11.8374397 152.26271349 7.7265625 144.3046875 C4.97815637 142.26298134 4.97815637 142.26298134 1.984375 140.66796875 C-10.57809188 133.64679944 -17.3663385 120.05178756 -22 107 C-23.19408999 102.3969965 -23.1615835 97.89619106 -23.17700195 93.17407227 C-23.18357315 92.29540497 -23.19014435 91.41673767 -23.19691467 90.51144409 C-23.21657445 87.61309719 -23.22829135 84.71480183 -23.23828125 81.81640625 C-23.24235678 80.82451735 -23.2464323 79.83262844 -23.25063133 78.8106823 C-23.27145666 73.56478969 -23.28577601 68.318923 -23.29516602 63.07299805 C-23.30624819 57.65798327 -23.34067912 52.24337738 -23.38033772 46.82850742 C-23.40647876 42.66004166 -23.41485542 38.49167399 -23.41844749 34.32313347 C-23.42331665 32.32685509 -23.43493998 30.33058118 -23.45348549 28.33438301 C-23.47783272 25.54103145 -23.47692048 22.74874744 -23.4699707 19.95532227 C-23.48278076 19.13383194 -23.49559082 18.31234161 -23.50878906 17.46595764 C-23.46085646 12.17341922 -22.47977792 9.2135462 -19 5 C-12.84140638 -0.42542771 -8.09184714 -0.77317388 0 0 Z " fill="#52B074" transform="translate(241,481)"/>
</svg>
